<svg xmlns="http://www.w3.org/2000/svg" width="18.825" height="12.55" viewBox="0 0 18.825 12.55">
  <g id="theeyeopen" transform="translate(-768.94 -331)">
    <g id="Icon_ion-eye" data-name="Icon ion-eye" transform="translate(768.94 331)">
      <path id="Path_2172" data-name="Path 2172" d="M18.52,16.01a2.51,2.51,0,1,1-2.51-2.51A2.51,2.51,0,0,1,18.52,16.01Z" transform="translate(-6.597 -9.735)" fill="#cecece"/>
      <path id="Path_2173" data-name="Path 2173" d="M19.747,12.342A13.292,13.292,0,0,0,15.853,8.4a9.852,9.852,0,0,0-5.33-1.65A9.4,9.4,0,0,0,5.65,8.166a14.286,14.286,0,0,0-4.3,4.16,1.252,1.252,0,0,0-.025,1.394,13.1,13.1,0,0,0,3.854,3.947A9.715,9.715,0,0,0,10.523,19.3a9.893,9.893,0,0,0,5.341-1.636,13.1,13.1,0,0,0,3.886-3.958,1.263,1.263,0,0,0,0-1.363Zm-9.21,4.447A3.765,3.765,0,1,1,14.3,13.025a3.765,3.765,0,0,1-3.765,3.765Z" transform="translate(-1.124 -6.75)" fill="#cecece"/>
    </g>
  </g>
</svg>
